<mxfile host="app.diagrams.net" modified="2023-10-12T08:26:24.860Z" agent="Mozilla/5.0 (Windows NT 10.0; Win64; x64; rv:109.0) Gecko/20100101 Firefox/118.0" version="22.0.0" etag="oeB3llqaAPevyWM7xTpw" type="github">
  <diagram name="Seite-1" id="aC5_pJDQNOk3Zi3CT9cv">
    <mxGraphModel>
      <root>
        <mxCell id="0" />
        <mxCell id="1" parent="0" />
      </root>
    </mxGraphModel>
  </diagram>
</mxfile>
